<?xml version="1.0" standalone="no"?><!DOCTYPE svg PUBLIC "-//W3C//DTD SVG 1.1//EN" "http://www.w3.org/Graphics/SVG/1.1/DTD/svg11.dtd"><svg xmlns:xlink="http://www.w3.org/1999/xlink" version="1.1" style="font-family:signika, serif;font-size:12px;" xmlns="http://www.w3.org/2000/svg" width="600" height="400"><desc>Created with Highcharts 4.0.4</desc><defs><clipPath id="highcharts-21"><rect x="0" y="0" width="580" height="320"></rect></clipPath></defs><g class="highcharts-series-group" ><g class="highcharts-series" visibility="visible"  transform="translate(10,10) scale(1 1)"><g class="highcharts-shadow"><g class="highcharts-shadow" transform="translate(0,0)"><path fill="none" d="M 289.97291146390853 35.000002758604495 A 133 133 0 0 1 405.2211766301209 234.43102028397936 L 290 168 A 0 0 0 0 0 290 168 Z" stroke="black" stroke-width="5" stroke-linejoin="round" transform="translate(1, 1)"  stroke-opacity="0.049999999999999996"></path><path fill="none" d="M 289.97291146390853 35.000002758604495 A 133 133 0 0 1 405.2211766301209 234.43102028397936 L 290 168 A 0 0 0 0 0 290 168 Z" stroke="black" stroke-width="3" stroke-linejoin="round" transform="translate(1, 1)"  stroke-opacity="0.09999999999999999"></path><path fill="none" d="M 289.97291146390853 35.000002758604495 A 133 133 0 0 1 405.2211766301209 234.43102028397936 L 290 168 A 0 0 0 0 0 290 168 Z" stroke="black" stroke-width="1" stroke-linejoin="round" transform="translate(1, 1)"  stroke-opacity="0.15"></path></g><g class="highcharts-shadow" transform="translate(0,0)"><path fill="none" d="M 405.15468801032523 234.54620822589857 A 133 133 0 0 1 280.80325632900974 300.68164871545014 L 290 168 A 0 0 0 0 0 290 168 Z" stroke="black" stroke-width="5" stroke-linejoin="round" transform="translate(1, 1)"  stroke-opacity="0.049999999999999996"></path><path fill="none" d="M 405.15468801032523 234.54620822589857 A 133 133 0 0 1 280.80325632900974 300.68164871545014 L 290 168 A 0 0 0 0 0 290 168 Z" stroke="black" stroke-width="3" stroke-linejoin="round" transform="translate(1, 1)"  stroke-opacity="0.09999999999999999"></path><path fill="none" d="M 405.15468801032523 234.54620822589857 A 133 133 0 0 1 280.80325632900974 300.68164871545014 L 290 168 A 0 0 0 0 0 290 168 Z" stroke="black" stroke-width="1" stroke-linejoin="round" transform="translate(1, 1)"  stroke-opacity="0.15"></path></g><g class="highcharts-shadow" transform="translate(0,0)"><path fill="none" d="M 280.67057930077937 300.67238563249305 A 133 133 0 0 1 179.82589206984932 242.50279150337593 L 290 168 A 0 0 0 0 0 290 168 Z" stroke="black" stroke-width="5" stroke-linejoin="round" transform="translate(1, 1)"  stroke-opacity="0.049999999999999996"></path><path fill="none" d="M 280.67057930077937 300.67238563249305 A 133 133 0 0 1 179.82589206984932 242.50279150337593 L 290 168 A 0 0 0 0 0 290 168 Z" stroke="black" stroke-width="3" stroke-linejoin="round" transform="translate(1, 1)"  stroke-opacity="0.09999999999999999"></path><path fill="none" d="M 280.67057930077937 300.67238563249305 A 133 133 0 0 1 179.82589206984932 242.50279150337593 L 290 168 A 0 0 0 0 0 290 168 Z" stroke="black" stroke-width="1" stroke-linejoin="round" transform="translate(1, 1)"  stroke-opacity="0.15"></path></g><g class="highcharts-shadow" transform="translate(0,0)"><path fill="none" d="M 179.75144437781245 242.3925801624155 A 133 133 0 0 1 160.92052045256807 135.94554695889968 L 290 168 A 0 0 0 0 0 290 168 Z" stroke="black" stroke-width="5" stroke-linejoin="round" transform="translate(1, 1)"  stroke-opacity="0.049999999999999996"></path><path fill="none" d="M 179.75144437781245 242.3925801624155 A 133 133 0 0 1 160.92052045256807 135.94554695889968 L 290 168 A 0 0 0 0 0 290 168 Z" stroke="black" stroke-width="3" stroke-linejoin="round" transform="translate(1, 1)"  stroke-opacity="0.09999999999999999"></path><path fill="none" d="M 179.75144437781245 242.3925801624155 A 133 133 0 0 1 160.92052045256807 135.94554695889968 L 290 168 A 0 0 0 0 0 290 168 Z" stroke="black" stroke-width="1" stroke-linejoin="round" transform="translate(1, 1)"  stroke-opacity="0.15"></path></g><g class="highcharts-shadow" transform="translate(0,0)"><path fill="none" d="M 160.95263944000118 135.8164835280907 A 133 133 0 0 1 197.472371989843 72.46132691514913 L 290 168 A 0 0 0 0 0 290 168 Z" stroke="black" stroke-width="5" stroke-linejoin="round" transform="translate(1, 1)"  stroke-opacity="0.049999999999999996"></path><path fill="none" d="M 160.95263944000118 135.8164835280907 A 133 133 0 0 1 197.472371989843 72.46132691514913 L 290 168 A 0 0 0 0 0 290 168 Z" stroke="black" stroke-width="3" stroke-linejoin="round" transform="translate(1, 1)"  stroke-opacity="0.09999999999999999"></path><path fill="none" d="M 160.95263944000118 135.8164835280907 A 133 133 0 0 1 197.472371989843 72.46132691514913 L 290 168 A 0 0 0 0 0 290 168 Z" stroke="black" stroke-width="1" stroke-linejoin="round" transform="translate(1, 1)"  stroke-opacity="0.15"></path></g><g class="highcharts-shadow" transform="translate(0,0)"><path fill="none" d="M 197.56795691081487 72.36884707189283 A 133 133 0 0 1 235.84207259076408 46.52605670870837 L 290 168 A 0 0 0 0 0 290 168 Z" stroke="black" stroke-width="5" stroke-linejoin="round" transform="translate(1, 1)"  stroke-opacity="0.049999999999999996"></path><path fill="none" d="M 197.56795691081487 72.36884707189283 A 133 133 0 0 1 235.84207259076408 46.52605670870837 L 290 168 A 0 0 0 0 0 290 168 Z" stroke="black" stroke-width="3" stroke-linejoin="round" transform="translate(1, 1)"  stroke-opacity="0.09999999999999999"></path><path fill="none" d="M 197.56795691081487 72.36884707189283 A 133 133 0 0 1 235.84207259076408 46.52605670870837 L 290 168 A 0 0 0 0 0 290 168 Z" stroke="black" stroke-width="1" stroke-linejoin="round" transform="translate(1, 1)"  stroke-opacity="0.15"></path></g><g class="highcharts-shadow" transform="translate(0,0)"><path fill="none" d="M 235.9635735927712 46.47195952729204 A 133 133 0 0 1 289.81526566823646 35.000128296202206 L 290 168 A 0 0 0 0 0 290 168 Z" stroke="black" stroke-width="5" stroke-linejoin="round" transform="translate(1, 1)"  stroke-opacity="0.049999999999999996"></path><path fill="none" d="M 235.9635735927712 46.47195952729204 A 133 133 0 0 1 289.81526566823646 35.000128296202206 L 290 168 A 0 0 0 0 0 290 168 Z" stroke="black" stroke-width="3" stroke-linejoin="round" transform="translate(1, 1)"  stroke-opacity="0.09999999999999999"></path><path fill="none" d="M 235.9635735927712 46.47195952729204 A 133 133 0 0 1 289.81526566823646 35.000128296202206 L 290 168 A 0 0 0 0 0 290 168 Z" stroke="black" stroke-width="1" stroke-linejoin="round" transform="translate(1, 1)"  stroke-opacity="0.15"></path></g></g><path fill="#3258b4" d="M 289.97291146390853 35.000002758604495 A 133 133 0 0 1 405.2211766301209 234.43102028397936 L 290 168 A 0 0 0 0 0 290 168 Z" stroke="#FFFFFF" stroke-width="1" stroke-linejoin="round" transform="translate(0,0)"></path><path fill="#ed561b" d="M 405.15468801032523 234.54620822589857 A 133 133 0 0 1 280.80325632900974 300.68164871545014 L 290 168 A 0 0 0 0 0 290 168 Z" stroke="#FFFFFF" stroke-width="1" stroke-linejoin="round" transform="translate(0,0)"></path><path fill="#9700df" d="M 280.67057930077937 300.67238563249305 A 133 133 0 0 1 179.82589206984932 242.50279150337593 L 290 168 A 0 0 0 0 0 290 168 Z" stroke="#FFFFFF" stroke-width="1" stroke-linejoin="round" transform="translate(0,0)"></path><path fill="#24CBE5" d="M 179.75144437781245 242.3925801624155 A 133 133 0 0 1 160.92052045256807 135.94554695889968 L 290 168 A 0 0 0 0 0 290 168 Z" stroke="#FFFFFF" stroke-width="1" stroke-linejoin="round" transform="translate(0,0)"></path><path fill="#64E572" d="M 160.95263944000118 135.8164835280907 A 133 133 0 0 1 197.472371989843 72.46132691514913 L 290 168 A 0 0 0 0 0 290 168 Z" stroke="#FFFFFF" stroke-width="1" stroke-linejoin="round" transform="translate(0,0)"></path><path fill="#ff55c6" d="M 197.56795691081487 72.36884707189283 A 133 133 0 0 1 235.84207259076408 46.52605670870837 L 290 168 A 0 0 0 0 0 290 168 Z" stroke="#FFFFFF" stroke-width="1" stroke-linejoin="round" transform="translate(0,0)"></path><path fill="#fff263" d="M 235.9635735927712 46.47195952729204 A 133 133 0 0 1 289.81526566823646 35.000128296202206 L 290 168 A 0 0 0 0 0 290 168 Z" stroke="#FFFFFF" stroke-width="1" stroke-linejoin="round" transform="translate(0,0)"></path></g><g class="highcharts-markers" visibility="visible"  transform="translate(10,10) scale(1 1)"></g></g><g class="highcharts-data-labels" visibility="visible"  transform="translate(10,10) scale(1 1)" opacity="1"><path fill="none" d="M 436.1621408168635 86.49999999999997 C 431.1621408168635 86.49999999999997 424.233937586588 90.49999999999997 414.70765814495917 95.99999999999997 L 405.1813787033303 101.49999999999997" stroke="#3258b4" stroke-width="1"></path><path fill="none" d="M 371.52386473410024 311.92045763600504 C 366.52386473410024 311.92045763600504 362.7680922318131 304.8568768931337 357.60390504116833 295.1444533716855 L 352.43971785052355 285.43202985023726" stroke="#ed561b" stroke-width="1"></path><path fill="none" d="M 203.50000000000009 309.16214081686354 C 208.50000000000009 309.16214081686354 212.50000000000006 302.23393758658807 218.00000000000006 292.7076581449592 L 223.50000000000006 283.1813787033304" stroke="#9700df" stroke-width="1"></path><path fill="none" d="M 124.47633625901011 196.30465295970976 C 129.4763362590101 196.30465295970976 137.35479828310778 194.91546753837432 148.18768356624207 193.00533758403807 L 159.02056884937636 191.09520762970183" stroke="#24CBE5" stroke-width="1"></path><path fill="none" d="M 143.83785918313643 86.50000000000016 C 148.83785918313643 86.50000000000016 155.76606241341187 90.50000000000016 165.29234185504072 96.00000000000014 L 174.81862129666956 101.50000000000013" stroke="#64E572" stroke-width="1"></path><path fill="none" d="M 193.8515567342682 32.866875673528256 C 198.8515567342682 32.866875673528256 203.3250999620342 39.499176253968585 209.4762219002124 48.61858955207404 L 215.62734383839063 57.7380028501795" stroke="#ff55c6" stroke-width="1"></path><path fill="none" d="M 251.1103943967051 8.561941080389726 C 256.1103943967051 8.561941080389726 257.77368792324705 16.387121886260168 260.06071652224244 27.146745494332027 L 262.34774512123784 37.906369102403886" stroke="#fff263" stroke-width="1"></path><g  style="cursor:pointer;" transform="translate(441,76)"><text x="3"  style="font-size:10px;font-family:'arial', sans-serif;color:#333;fill:#333;" y="14">IT</text></g><g  style="cursor:pointer;" transform="translate(377,302)"><text x="3"  style="font-size:10px;font-family:'arial', sans-serif;color:#333;fill:#333;" y="14">Marketing</text></g><g  style="cursor:pointer;" transform="translate(160,299)"><text x="3"  style="font-size:10px;font-family:'arial', sans-serif;color:#333;fill:#333;" y="14">Finance</text></g><g  style="cursor:pointer;" transform="translate(68,186)"><text x="3"  style="font-size:10px;font-family:'arial', sans-serif;color:#333;fill:#333;" y="14">Operations</text></g><g  style="cursor:pointer;" transform="translate(121,77)"><text x="3"  style="font-size:10px;font-family:'arial', sans-serif;color:#333;fill:#333;" y="14">HR</text></g><g  style="cursor:pointer;" transform="translate(141,23)"><text x="3"  style="font-size:10px;font-family:'arial', sans-serif;color:#333;fill:#333;" y="14">Education</text></g><g  style="cursor:pointer;" transform="translate(173,-1)"><text x="3"  style="font-size:10px;font-family:'arial', sans-serif;color:#333;fill:#333;" y="14"><tspan>Federal &amp; Govt.</tspan></text></g></g><g class="highcharts-legend"  transform="translate(58,350)"><g ><g><g class="highcharts-legend-item"  transform="translate(8,3)"><text x="21" style="color:#333;font-size:13px;font-weight:bold;cursor:pointer;font-family:signika, serif;text-transform:none;fill:#333;" text-anchor="start"  y="16">IT</text><rect x="0" y="5" width="16" height="12"  fill="#3258b4"></rect></g><g class="highcharts-legend-item"  transform="translate(59.765625,3)"><text x="21" y="16" style="color:#333;font-size:13px;font-weight:bold;cursor:pointer;font-family:signika, serif;text-transform:none;fill:#333;" text-anchor="start" >Marketing</text><rect x="0" y="5" width="16" height="12"  fill="#ed561b"></rect></g><g class="highcharts-legend-item"  transform="translate(159.515625,3)"><text x="21" y="16" style="color:#333;font-size:13px;font-weight:bold;cursor:pointer;font-family:signika, serif;text-transform:none;fill:#333;" text-anchor="start" >Finance</text><rect x="0" y="5" width="16" height="12"  fill="#9700df"></rect></g><g class="highcharts-legend-item"  transform="translate(244.875,3)"><text x="21" y="16" style="color:#333;font-size:13px;font-weight:bold;cursor:pointer;font-family:signika, serif;text-transform:none;fill:#333;" text-anchor="start" >Operations</text><rect x="0" y="5" width="16" height="12"  fill="#24CBE5"></rect></g><g class="highcharts-legend-item"  transform="translate(348.25,3)"><text x="21" y="16" style="color:#333;font-size:13px;font-weight:bold;cursor:pointer;font-family:signika, serif;text-transform:none;fill:#333;" text-anchor="start" >HR</text><rect x="0" y="5" width="16" height="12"  fill="#64E572"></rect></g><g class="highcharts-legend-item"  transform="translate(406.171875,3)"><text x="21" y="16" style="color:#333;font-size:13px;font-weight:bold;cursor:pointer;font-family:signika, serif;text-transform:none;fill:#333;" text-anchor="start" >Education</text><rect x="0" y="5" width="16" height="12"  fill="#ff55c6"></rect></g><g class="highcharts-legend-item"  transform="translate(8,19)"><text x="21" y="16" style="color:#333;font-size:13px;font-weight:bold;cursor:pointer;font-family:signika, serif;text-transform:none;fill:#333;" text-anchor="start" ><tspan>Federal &amp; Govt.</tspan></text><rect x="0" y="5" width="16" height="12"  fill="#fff263"></rect></g></g></g></g><g class="highcharts-tooltip"  style="cursor:default;padding:0;white-space:nowrap;" transform="translate(0,-9999)"><path fill="none" d="M 3 0 L 13 0 C 16 0 16 0 16 3 L 16 13 C 16 16 16 16 13 16 L 3 16 C 0 16 0 16 0 13 L 0 3 C 0 0 0 0 3 0"  stroke="black" stroke-opacity="0.049999999999999996" stroke-width="5" transform="translate(1, 1)"></path><path fill="none" d="M 3 0 L 13 0 C 16 0 16 0 16 3 L 16 13 C 16 16 16 16 13 16 L 3 16 C 0 16 0 16 0 13 L 0 3 C 0 0 0 0 3 0"  stroke="black" stroke-opacity="0.09999999999999999" stroke-width="3" transform="translate(1, 1)"></path><path fill="none" d="M 3 0 L 13 0 C 16 0 16 0 16 3 L 16 13 C 16 16 16 16 13 16 L 3 16 C 0 16 0 16 0 13 L 0 3 C 0 0 0 0 3 0"  stroke="black" stroke-opacity="0.15" stroke-width="1" transform="translate(1, 1)"></path><path fill="rgb(255, 255, 255)" fill-opacity=" 0.85" d="M 3 0 L 13 0 C 16 0 16 0 16 3 L 16 13 C 16 16 16 16 13 16 L 3 16 C 0 16 0 16 0 13 L 0 3 C 0 0 0 0 3 0"></path><text x="8"  style="font-size:12px;color:#333;fill:#333;" y="21"></text></g><text x="590" text-anchor="end"  style="cursor:pointer;color:#666;font-size:9px;fill:#666;" y="395">meta-chart.com</text></svg>